<svg height='100px' width='100px'  fill="#000000" xmlns="http://www.w3.org/2000/svg" xmlns:xlink="http://www.w3.org/1999/xlink" version="1.1" x="0px" y="0px" viewBox="0 0 100 100" style="enable-background:new 0 0 100 100;" xml:space="preserve"><style type="text/css">
	.st0{fill:none;}
</style><rect class="st0" width="100" height="100"></rect><path d="M79,48.3L59.3,28.5c-1-1-2.5-1-3.5,0c-1,1-1,2.5,0,3.5l15.6,15.6H47.1c-1.4,0-2.5,1.1-2.5,2.5l0,0c0,1.4,1.1,2.5,2.5,2.5  h24.3L55.8,68c-0.9,0.9-1,2.5,0,3.4c1,1,2.6,1,3.6,0L79,51.7c0.5-0.5,0.7-1.1,0.7-1.7C79.7,49.4,79.5,48.7,79,48.3z"></path><g><circle cx="38.9" cy="50" r="2.5"></circle><circle cx="30.8" cy="50" r="2.5"></circle><circle cx="22.7" cy="50" r="2.5"></circle></g></svg>