<svg height='100px' width='100px'  fill="#000000" xmlns="http://www.w3.org/2000/svg" xmlns:xlink="http://www.w3.org/1999/xlink" version="1.1" x="0px" y="0px" viewBox="0 0 100 100" style="enable-background:new 0 0 100 100;" xml:space="preserve"><title>calculation 2</title><g><path d="M88.1,1.1H29.5c-1,0-1.9,0.8-1.9,1.9s0.8,1.9,1.9,1.9h58.6c3.9,0,7.1,3.2,7.1,7.1v76.1c0,3.9-3.2,7-7.1,7H12   c-3.9,0-7-3.1-7.1-7V12.2c0-3.9,3.2-7.1,7.1-7.1h7.4c1,0,1.9-0.8,1.9-1.9s-0.8-1.9-1.9-1.9H12C6,1.3,1.2,6.2,1.2,12.1v76   c0,6,4.8,10.8,10.8,10.8h76.1c5.9,0,10.7-4.9,10.7-10.8V12C98.9,6,94.1,1.2,88.1,1.1z"></path><path d="M30.8,21.3C30.8,21.3,30.8,21.3,30.8,21.3c-1,0-1.9,0.8-1.9,1.9v7.1H22c-1,0-1.9,0.8-1.9,1.9c0,1,0.8,1.9,1.9,1.9h6.9v6.9   c0,1,0.8,1.9,1.9,1.9c1,0,1.9-0.8,1.9-1.9V34h7c1,0,1.9-0.8,1.9-1.9c0-1-0.8-1.9-1.9-1.9h-7v-7.1C32.7,22.1,31.8,21.3,30.8,21.3z"></path><path d="M59.9,34h17.7c1,0,1.9-0.8,1.9-1.9c0-1-0.8-1.9-1.9-1.9H59.9c-1,0-1.9,0.8-1.9,1.9C58,33.1,58.9,34,59.9,34z"></path><path d="M38.5,61.8C38.5,61.8,38.5,61.7,38.5,61.8c-0.8-0.8-2-0.8-2.7-0.1c0,0,0,0,0,0l-4.9,4.9L26,61.7c-0.7-0.7-1.9-0.7-2.6,0   c-0.7,0.7-0.7,1.9,0,2.6l5,5l-4.9,4.9c-0.7,0.7-0.7,1.9,0,2.6s1.9,0.7,2.6,0l4.9-4.9l4.9,4.9c0.7,0.7,1.9,0.7,2.6,0   c0.7-0.7,0.7-1.9,0-2.6l-5-4.9l4.9-4.9C39.2,63.7,39.2,62.5,38.5,61.8z"></path><path d="M59.9,66.2h17.7c1,0,1.9-0.8,1.9-1.9c0-1-0.8-1.9-1.9-1.9H59.9c-1,0-1.9,0.8-1.9,1.9C58,65.4,58.9,66.2,59.9,66.2z"></path><path d="M59.9,75.3h17.7c1,0,1.9-0.8,1.9-1.9c0-1-0.8-1.9-1.9-1.9H59.9c-1,0-1.9,0.8-1.9,1.9C58,74.5,58.9,75.3,59.9,75.3z"></path></g></svg>