<svg height='100px' width='100px'  fill="currentColor" xmlns="http://www.w3.org/2000/svg" viewBox="0 0 26.458333 26.458334" x="0px" y="0px"><path d="m2.1332616 273.45266a.52920428.52921798 0 0 0 -.122469 1.04747l1.978635.4346.508479 2.42a.52920428.52921798 0 0 0 .0011.005l2.521739 11.41994a.52920428.52921798 0 0 0 .516746.41497h14.2819194a.52920428.52921798 0 1 0 0-1.05832h-13.8566744l-.486778-2.205h15.0642774a.52920428.52921798 0 0 0 .516749-.41495l1.801389-8.15711a.52920428.52921798 0 0 0 -.51675-.64338c-6.299049.00016-12.598071 0-18.8970074-.003l-.489877-2.33112a.52920428.52921798 0 0 0 -.404614-.40823l-2.311939-.50746a.52920428.52921798 0 0 0 -.104901-.014zm3.540249 4.31911c6.0031104.003 12.0062374.003 18.0092354.003l-1.567818 7.09877h-14.8730794zm5.2496604 12.54029c-1.0354384 0-1.8845774.85272-1.8845874 1.88876-.000011 1.03601.849134 1.88875 1.8845874 1.88875 1.03545 0 1.884595-.85274 1.884584-1.88875-.00001-1.03604-.84915-1.88876-1.884584-1.88876zm7.590014 0c-1.035437 0-1.884576.85272-1.884586 1.88876-.00001 1.03601.849135 1.88875 1.884586 1.88875 1.03545 0 1.884595-.85274 1.884584-1.88875-.000009-1.03604-.849148-1.88876-1.884584-1.88876zm-7.590014 1.05832c.461674 0 .826276.36454.826282.83044.000005.46587-.364603.83044-.826282.83044-.46168 0-.826291-.36457-.826285-.83044.000005-.4659.36461-.83044.826285-.83044zm7.590014 0c.461673 0 .826278.36454.826282.83044.000005.46587-.364602.83044-.826282.83044s-.826288-.36457-.826283-.83044c.000004-.4659.364609-.83044.826283-.83044z" transform="translate(0 -270.54165)"></path></svg>
