<svg height='100px' width='100px'  fill="#000000" xmlns="http://www.w3.org/2000/svg" data-name="Layer 1" viewBox="0 0 48 48" x="0px" y="0px"><title>crane</title><path d="M41.5,1a1,1,0,0,0-.57-.9,1,1,0,0,0-1.06.13L8.22,26A2.76,2.76,0,0,0,5.5,28.75V40.56A4,4,0,0,0,7.5,48h18a4,4,0,0,0,2-7.44V28.75A2.74,2.74,0,0,0,26,26.3L39.25,9.24,38.57,18H37.5a1,1,0,0,0,0,2h1v4a3,3,0,0,0,6,0,1,1,0,0,0-2,0,1,1,0,0,1-2,0V20a1,1,0,0,0,1-1,1,1,0,0,0-.92-1L41.5,6.08V6s0,0,0,0ZM11.39,26,39.5,3.11V5.66L23.68,26ZM25.5,46H7.5a2,2,0,0,1,0-4h18a2,2,0,0,1,0,4Zm-18-6V28.75A.76.76,0,0,1,8.25,28h16.5a.76.76,0,0,1,.75.75V40Z"></path></svg>