<svg height='100px' width='100px'  fill="#000000" xmlns="http://www.w3.org/2000/svg" xmlns:xlink="http://www.w3.org/1999/xlink" version="1.1" x="0px" y="0px" viewBox="0 0 100 100" enable-background="new 0 0 100 100" xml:space="preserve"><g><path d="M84.85,31.973C78.914,18.776,65.652,9.561,50.27,9.561c-15.352,0-28.59,9.179-34.543,22.332   C8.026,32.907,2.034,38.679,1.475,45.827c-0.033,0.335-0.055,0.689-0.056,1.082c0,0.003,0,0.005,0,0.008c0,0.001,0,0.001,0,0.002   c0,0.002,0,0.003,0,0.004c0,0.472,0.024,0.938,0.07,1.397c0.002,0.019,0.006,0.035,0.008,0.053   c0.047,0.443,0.112,0.882,0.199,1.313c0.007,0.03,0.017,0.06,0.022,0.09c0.088,0.418,0.191,0.831,0.315,1.236   c0.008,0.025,0.019,0.049,0.026,0.073c0.128,0.41,0.272,0.813,0.438,1.208c0.004,0.011,0.01,0.021,0.015,0.031   c2.055,4.902,6.821,8.587,12.638,9.542c4.869,10.825,14.672,18.961,26.527,21.539c0.675,3.991,4.139,7.034,8.321,7.034   c4.667,0,8.45-3.783,8.45-8.449c0-4.667-3.783-8.45-8.45-8.45c-3.754,0-6.933,2.451-8.033,5.839   c-10.918-2.569-19.813-10.434-23.827-20.723v-1.22V43.733v-7.064c4.52-13.416,17.21-23.109,32.131-23.109   c14.363,0,26.66,8.983,31.591,21.623v26.93c9.234,0,16.719-6.802,16.719-15.195C98.58,39.452,92.656,33.255,84.85,31.973z"></path><path d="M50.477,23.653c-12.291,0-22.256,9.965-22.256,22.256c0,12.292,9.965,22.257,22.256,22.257   c12.291,0,22.257-9.965,22.257-22.257C72.734,33.618,62.768,23.653,50.477,23.653z M50.477,64.166   c-10.066,0-18.256-8.19-18.256-18.257s8.189-18.256,18.256-18.256c10.066,0,18.257,8.189,18.257,18.256   S60.543,64.166,50.477,64.166z"></path><polygon points="48.48,43.906 39.73,43.906 39.73,47.906 52.473,47.906 52.48,33.777 48.48,33.777  "></polygon></g></svg>