<svg height='100px' width='100px'  fill="currentColor" xmlns="http://www.w3.org/2000/svg" xmlns:xlink="http://www.w3.org/1999/xlink" version="1.1" x="0px" y="0px" viewBox="0 0 100 100" enable-background="new 0 0 100 100" xml:space="preserve"><g><path d="M50,5.75C25.562,5.75,5.75,25.562,5.75,50S25.562,94.25,50,94.25S94.25,74.438,94.25,50S74.438,5.75,50,5.75z    M71.481,63.902l-7.578,7.579c-0.26,0.259-0.611,0.405-0.978,0.405c-0.366,0-0.717-0.146-0.977-0.405L49.681,59.213l-11.63,11.63   c-0.259,0.259-0.61,0.404-0.977,0.404s-0.718-0.146-0.977-0.404l-7.578-7.579c-0.54-0.54-0.54-1.415,0-1.954l11.63-11.63   l-11.63-11.629c-0.54-0.54-0.54-1.415,0-1.954l7.578-7.578c0.518-0.519,1.435-0.519,1.953,0l11.63,11.629l11.63-11.629   c0.259-0.259,0.611-0.405,0.977-0.405c0.367,0,0.718,0.146,0.977,0.405l7.577,7.578c0.541,0.54,0.541,1.415,0,1.954L59.213,49.68   l12.268,12.269C72.02,62.488,72.02,63.363,71.481,63.902z"></path></g></svg>
