<svg height='100px' width='100px'  fill="currentColor" xmlns="http://www.w3.org/2000/svg" xmlns:xlink="http://www.w3.org/1999/xlink" version="1.1" x="0px" y="0px" viewBox="0 0 100 100" enable-background="new 0 0 100 100" xml:space="preserve"><g><path fill="none" d="M50,23.13c-6.879,0-12.476,5.596-12.476,12.476c0,6.879,5.597,12.476,12.476,12.476   c6.88,0,12.477-5.597,12.477-12.476C62.477,28.726,56.88,23.13,50,23.13z"></path><path fill="none" d="M50,8.938c-14.425,0-26.161,11.736-26.161,26.161c0,12.652,20.191,45.025,26.161,54.317   c5.97-9.294,26.161-41.669,26.161-54.317C76.161,20.674,64.425,8.938,50,8.938z M50,52.02c-9.05,0-16.414-7.363-16.414-16.414   c0-9.051,7.363-16.414,16.414-16.414c9.052,0,16.415,7.363,16.415,16.414C66.415,44.657,59.052,52.02,50,52.02z"></path><path d="M50,5C33.403,5,19.901,18.502,19.901,35.099c0,15.947,27.297,57.27,28.459,59.021C48.725,94.669,49.34,95,50,95   c0.66,0,1.276-0.331,1.641-0.881c1.161-1.751,28.459-43.074,28.459-59.021C80.099,18.502,66.597,5,50,5z M50,89.416   c-5.97-9.293-26.161-41.665-26.161-54.317C23.839,20.674,35.575,8.938,50,8.938s26.161,11.736,26.161,26.161   C76.161,47.747,55.97,80.122,50,89.416z"></path><path d="M50,19.192c-9.05,0-16.414,7.363-16.414,16.414c0,9.05,7.363,16.414,16.414,16.414c9.052,0,16.415-7.363,16.415-16.414   C66.415,26.555,59.052,19.192,50,19.192z M50,48.082c-6.879,0-12.476-5.597-12.476-12.476c0-6.88,5.597-12.476,12.476-12.476   c6.88,0,12.477,5.596,12.477,12.476C62.477,42.485,56.88,48.082,50,48.082z"></path></g></svg>
