<svg xmlns="http://www.w3.org/2000/svg" viewBox="0 0 24 24"><g fill="#000" fill-rule="evenodd"><path d="M4.002 12.745L4.005 18H5.5v1H4.005C3.452 19 3 18.55 3 18v-5.758c.31.207.645.377 1.002.503zM9.744 7H15v11H9.5v1h8v-1H16V7c0-.548-.449-1-1-1H9.242c.207.309.376.644.502 1z"/><path d="M20.002 9c.1 0 .274.098.325.184l2.488 4.147c.097.16.185.477.185.667v4.004c0 .003-1.5-.002-1.5-.002v1h1.495A.994.994 0 0024 18.002v-4.004c0-.371-.138-.866-.327-1.182L21.185 8.67A1.468 1.468 0 0020.002 8H15.5v1h4.502z"/><path d="M18.995 10a.99.99 0 00-.995.99v3.02c0 .55.442.99.998.99H23.5v-1h-4.502c-.005 0 .002-3.01.002-3.01 0 .005 2.5.01 2.5.01v-1h-2.505zM7.5 21a2.5 2.5 0 100-5 2.5 2.5 0 000 5zm0-1a1.5 1.5 0 100-3 1.5 1.5 0 000 3zM19.5 21a2.5 2.5 0 100-5 2.5 2.5 0 000 5zm0-1a1.5 1.5 0 100-3 1.5 1.5 0 000 3zM5.5 14a5.5 5.5 0 100-11 5.5 5.5 0 000 11zm0-1a4.5 4.5 0 100-9 4.5 4.5 0 000 9z"/><path d="M7.207 5.404L5.402 7.8 3.804 6.596l-.601.799L5.598 9.2l2.408-3.194z"/></g></svg>