<svg height='100px' width='100px'  fill="currentColor" xmlns="http://www.w3.org/2000/svg" xmlns:xlink="http://www.w3.org/1999/xlink" version="1.1" x="0px" y="0px" viewBox="0 0 100 100" enable-background="new 0 0 100 100" xml:space="preserve"><path d="M50,55C24.8,55,5,64.9,5,77.5v15C5,93.9,6.1,95,7.5,95h85c1.4,0,2.5-1.1,2.5-2.5v-15C95,64.9,75.2,55,50,55z M90,90H10V77.5  C10,69,26.1,60,50,60s40,9,40,17.5V90z"></path><path d="M72.5,27.5C72.5,15.1,62.4,5,50,5S27.5,15.1,27.5,27.5S37.6,50,50,50S72.5,39.9,72.5,27.5z M32.5,27.5  C32.5,17.9,40.4,10,50,10s17.5,7.9,17.5,17.5S59.6,45,50,45S32.5,37.1,32.5,27.5z"></path></svg>
